<svg fill="#fff" width="20" height="20" xmlns="http://www.w3.org/2000/svg" xmlns:bx="https://boxy-svg.com"><path d="M10 0c-.758.797-3.646 1.953-4.007 5.256C2.904 4.601.955 7.124 0 7.636c.487 1.004.64 4.249 3.517 5.63-1.547 2.887.136 5.615.303 6.727 1.059-.176 4.042.673 6.181-1.776 2.133 2.438 5.122 1.6 6.181 1.776.167-1.112 1.857-3.832.301-6.727 2.865-1.379 3.03-4.627 3.517-5.63-.955-.512-2.895-3.04-5.994-2.38C13.643 1.965 10.757.797 10 0zm0 4.251c.478 0 .812 1.972 1.007 3.586A3.068 3.068 0 0 0 10 7.651c-.354 0-.688.074-1.007.185.196-1.619.53-3.585 1.007-3.585zm-5.366 4.44c.72-.01 1.812.167 2.763.357.012-.019.029-.034.042-.052a3.48 3.48 0 0 0-.675 2.056v.005C5.363 10.361 3.7 9.424 3.847 8.949c.055-.178.353-.252.787-.258zm10.734.003c.432.005.729.078.785.255.148.476-1.52 1.418-2.918 2.111v-.008c0-.751-.239-1.439-.63-2.001.953-.19 2.043-.367 2.763-.357zM10 9.351c.892 0 1.617.763 1.617 1.701 0 .937-.725 1.7-1.617 1.7-.893 0-1.618-.763-1.618-1.7 0-.938.725-1.701 1.618-1.701zm3.23 1.753zm-6.459.012zm.112.801zm6.232.002zm-6.021.603c.031.068.067.131.101.195-.034-.064-.069-.127-.101-.195zm5.806.007c-.029.063-.061.123-.093.183.032-.06.065-.12.093-.183zm-5.518.507c.4.581.97 1.014 1.633 1.239-1.064 1.189-2.433 2.574-2.818 2.28-.386-.295.441-2.093 1.185-3.519zm5.234.003c.747 1.43 1.571 3.222 1.186 3.516-.387.295-1.76-1.093-2.821-2.279a3.234 3.234 0 0 0 1.635-1.237zm-2.078 1.355a3.076 3.076 0 0 0 0 0z" bx:origin="0 0"/></svg>