<svg xmlns="http://www.w3.org/2000/svg" viewBox="0 0 128 128"><path d="M114 111V41c0-5.5-4.5-10-10-10H24c-5.5 0-10 4.5-10 10v70H4v3c0 5.5 4.5 10 10 10h100c5.5 0 10-4.5 10-10v-3h-10z" fill="#FFFFFF"/><path d="M84.3 77.6c1.8 10.2 11.2 17.3 21.7 16.3 11-1.1 19-10.9 17.9-21.9S113 53 102 54.1c-8.2.8-14.7 6.4-17.1 13.8" fill="#FFFFFF"/><path d="M74 114H54c-1.7 0-3-1.3-3-3s1.3-3 3-3h20c1.7 0 3 1.3 3 3s-1.3 3-3 3z" fill="#444B54"/><path d="M114 127H14c-7.2 0-13-5.8-13-13v-3c0-1.7 1.3-3 3-3h35c1.7 0 3 1.3 3 3s-1.3 3-3 3H7c0 3.9 3.1 7 7 7h100c3.9 0 7-3.1 7-7H89c-1.7 0-3-1.3-3-3s1.3-3 3-3h35c1.7 0 3 1.3 3 3v3c0 7.2-5.8 13-13 13zM14 103c-1.7 0-3-1.3-3-3V41c0-7.2 5.8-13 13-13h80c7.2 0 13 5.8 13 13 0 1.7-1.3 3-3 3s-3-1.3-3-3c0-3.9-3.1-7-7-7H24c-3.9 0-7 3.1-7 7v59c0 1.7-1.3 3-3 3z" fill="#444B54"/><circle cx="104" cy="74" r="4" fill="#71C2FF"/><path d="M126.9 71.7c-1.3-12.6-12.6-21.9-25.2-20.6-9.1.9-16.8 7.1-19.6 15.8-.5 1.6.4 3.3 1.9 3.8 1.6.5 3.3-.4 3.8-1.9 2.1-6.4 7.8-11 14.5-11.7 9.3-.9 17.7 5.9 18.6 15.2.9 9.3-5.9 17.7-15.2 18.6-8.8.9-16.8-5.2-18.4-13.8-.3-1.6-1.9-2.7-3.5-2.4-1.2.2-2.2 1.2-2.4 2.3H41.6l-2-3 2-3H46c1.7 0 3-1.3 3-3s-1.3-3-3-3h-6c-1 0-1.9.5-2.5 1.3l-4 6c-.7 1-.7 2.3 0 3.3l4 6c.6.9 1.5 1.4 2.5 1.4h42.9c3.6 8.3 11.9 14 21.2 14 .7 0 1.5 0 2.3-.1 12.5-1.3 21.7-12.6 20.5-25.2z" fill="#71C2FF"/><path d="M66 71h-8c-1.7 0-3-1.3-3-3s1.3-3 3-3h8c1.7 0 3 1.3 3 3s-1.3 3-3 3zm19 0h-7c-1.7 0-3-1.3-3-3s1.3-3 3-3h7c1.7 0 3 1.3 3 3s-1.3 3-3 3z" fill="#71C2FF"/></svg>