<svg xmlns="http://www.w3.org/2000/svg" viewBox="0 0 128 128"><path d="M124 124H4V14C4 8.5 8.5 4 14 4h100c5.5 0 10 4.5 10 10v110z" fill="#FFFFFF"/><path d="M44 27H24c-1.7 0-3-1.3-3-3s1.3-3 3-3h20c1.7 0 3 1.3 3 3s-1.3 3-3 3zm0 10H24c-1.7 0-3-1.3-3-3s1.3-3 3-3h20c1.7 0 3 1.3 3 3s-1.3 3-3 3zm0 10H24c-1.7 0-3-1.3-3-3s1.3-3 3-3h20c1.7 0 3 1.3 3 3s-1.3 3-3 3zm0 60H24c-1.7 0-3-1.3-3-3s1.3-3 3-3h20c1.7 0 3 1.3 3 3s-1.3 3-3 3zm0-40c-.2 0-.4 0-.6-.1-.2 0-.4-.1-.6-.2-.2-.1-.3-.2-.5-.3-.2-.1-.3-.2-.5-.4-.5-.4-.8-1.2-.8-2s.3-1.6.9-2.1c1.1-1.1 3.1-1.1 4.2 0 .6.6.9 1.3.9 2.1s-.3 1.6-.9 2.1c-.5.6-1.3.9-2.1.9zm60-40H84c-1.7 0-3-1.3-3-3s1.3-3 3-3h20c1.7 0 3 1.3 3 3s-1.3 3-3 3zm0 10H84c-1.7 0-3-1.3-3-3s1.3-3 3-3h20c1.7 0 3 1.3 3 3s-1.3 3-3 3zm0 10H84c-1.7 0-3-1.3-3-3s1.3-3 3-3h20c1.7 0 3 1.3 3 3s-1.3 3-3 3zm0 60H84c-1.7 0-3-1.3-3-3s1.3-3 3-3h20c1.7 0 3 1.3 3 3s-1.3 3-3 3zm0-40c-.2 0-.4 0-.6-.1-.2 0-.4-.1-.6-.2-.2-.1-.3-.2-.5-.3-.2-.1-.3-.2-.5-.4l-.4-.4c-.1-.2-.2-.3-.3-.5-.1-.2-.1-.4-.2-.6 0-.2-.1-.4-.1-.6 0-.2 0-.4.1-.6 0-.2.1-.4.2-.6.1-.2.2-.4.3-.5.1-.2.2-.3.4-.5s.3-.3.5-.4c.2-.1.3-.2.5-.3.2-.1.4-.1.6-.2 1-.2 2 .1 2.7.8.1.1.3.3.4.5.1.2.2.3.3.5.1.2.1.4.2.6 0 .2.1.4.1.6 0 .2 0 .4-.1.6 0 .2-.1.4-.2.6-.1.2-.2.4-.3.5-.1.2-.2.3-.4.4-.5.8-1.3 1.1-2.1 1.1z" fill="#FF5576"/><path d="M114 1H14C6.8 1 1 6.8 1 14v110c0 1.7 1.3 3 3 3h120c1.7 0 3-1.3 3-3V14c0-7.2-5.8-13-13-13zM7 14c0-3.9 3.1-7 7-7h47v114H7V14zm114 107H67V7h47c3.9 0 7 3.1 7 7v107z" fill="#444B54"/></svg>